<svg width="512" height="512" viewBox="0 0 512 512" fill="none" xmlns="http://www.w3.org/2000/svg">
<rect width="512" height="512" fill="#171717"/>
<path d="M243.657 139.871C238.275 140.37 237.873 140.437 231.779 141.601C219.406 143.995 207.807 148.884 198.682 155.569C190.578 161.522 187.732 164.283 181.886 171.799C180.68 173.329 177.37 178.983 175.7 182.309C169.885 193.983 167.132 208.783 168.183 222.718C168.555 227.64 169.452 233.161 170.379 236.188C170.689 237.185 171.029 238.449 171.122 239.014C171.833 242.34 176.133 251.021 179.597 256.143C183.154 261.397 191.289 269.18 198.373 274.069C204.033 277.993 216.592 285.144 224.046 288.736C224.912 289.135 226.49 289.933 227.603 290.498C230.016 291.696 240.749 297.017 246.162 299.711C253.741 303.436 266.732 310.387 268.897 311.85C273.506 314.943 275.826 318.668 275.455 322.493C275.022 326.916 271.155 331.207 266.577 332.271C258.937 334.067 242.853 333.335 233.016 330.808C227.572 329.377 219.685 326.783 216.87 325.453C216.313 325.187 215.385 324.788 214.859 324.522C204.528 319.699 198.311 316.24 191.475 311.451C189.557 310.121 187.794 309.023 187.547 309.023C187.021 309.023 185.072 311.917 177.123 324.655C169.977 336.129 168.029 339.189 167.317 340.053C166.853 340.619 166.884 340.719 167.503 341.217C167.843 341.55 169.019 342.514 170.07 343.412C177.958 350.164 188.011 356.549 197.754 360.973C204.93 364.265 217.303 368.123 225.747 369.72C241.956 372.813 259.339 373.345 274.31 371.216C276.785 370.851 279.692 370.318 280.806 370.052C281.919 369.786 283.713 369.321 284.827 369.088C290.116 367.824 292.776 366.959 299.21 364.398C301.901 363.334 308.675 359.742 311.583 357.88C318.852 353.157 327.575 344.443 332.802 336.628C334.225 334.499 337.04 329.178 338.308 326.251C344.68 311.451 346.195 291.995 342.174 276.763C341.772 275.2 341.308 273.636 341.154 273.271C340.999 272.905 340.628 271.84 340.349 270.942C339.421 268.116 336.947 262.661 335.431 260.167C331.008 252.783 326.152 247.462 318.543 241.575C308.768 234.026 300.757 229.336 281.888 220.157C276.847 217.729 276.692 217.663 271.836 215.135C269.361 213.871 266.577 212.474 265.649 212.009C263.175 210.778 256.555 207.352 251.421 204.659C241.739 199.537 238.955 196.909 237.811 191.721C237.47 190.158 237.501 189.759 238.12 187.797C239.295 183.972 242.296 181.511 247.771 179.914C250.152 179.216 250.957 179.149 259.154 179.149C267.289 179.149 268.371 179.216 273.382 180.081C276.352 180.58 280.218 181.378 281.95 181.843C284.982 182.642 293.704 185.668 295.962 186.732C306.294 191.522 315.944 196.943 321.945 201.266C323.492 202.397 324.884 203.195 325.038 203.095C325.224 202.962 325.935 201.965 326.616 200.834C327.327 199.703 329.523 196.211 331.534 193.118C343.071 175.225 345.175 171.833 344.989 171.334C344.865 171.068 344.092 170.236 343.226 169.505C342.391 168.773 340.751 167.376 339.638 166.378C331.07 158.995 317.182 151.445 303.541 146.723C297.602 144.694 297.076 144.527 292.869 143.43C287.765 142.1 283.033 141.202 276.785 140.37C270.196 139.472 251.142 139.206 243.657 139.871ZM202.641 175.391C202.085 176.123 200.754 180.679 200.198 183.806C199.486 187.896 199.486 196.444 200.198 200.102C201.651 207.253 204.807 212.607 210.931 218.228C213.22 220.29 217.519 223.35 220.427 224.979C224.696 227.341 227.882 229.037 230.232 230.134C233.078 231.498 233.975 231.93 245.08 237.618C248.668 239.414 252.472 241.376 253.586 241.908C254.699 242.44 256.308 243.238 257.143 243.671C260.669 245.4 268.897 249.591 273.444 251.952C276.135 253.349 278.362 254.48 278.455 254.48C278.641 254.48 291.539 261.198 295.808 263.526C308.366 270.377 314.769 277.661 318.233 289.035C319.594 293.558 320.089 297.416 320.089 303.536C320.058 312.748 318.326 321.828 315.387 327.814C314.645 329.377 311.212 335.164 310.624 335.929C310.16 336.495 310.407 335.43 311.15 333.302C313.191 327.681 313.903 318.701 312.82 312.615C311.49 305.099 307.005 297.882 300.293 292.427C296.21 289.102 294.292 288.037 273.073 277.428C268.804 275.299 265.68 273.736 259.989 270.809C258.597 270.111 256.617 269.113 255.596 268.614C254.576 268.116 252.503 267.051 250.957 266.286C245.729 263.626 243.224 262.395 239.976 260.799C238.182 259.901 235.862 258.737 234.81 258.171C233.759 257.606 230.418 255.943 227.387 254.48C219.437 250.555 212.014 246.331 208.147 243.538C203.662 240.245 199.363 234.757 196.61 228.837C191.599 217.962 191.227 199.67 195.805 187.131C197.445 182.608 202.146 174.094 202.672 174.66C202.858 174.859 202.827 175.125 202.641 175.391Z" fill="url(#paint0_linear_412_27)"/>
<defs>
<linearGradient id="paint0_linear_412_27" x1="195.898" y1="153.707" x2="332.015" y2="343.003" gradientUnits="userSpaceOnUse">
<stop stop-color="#004022"/>
<stop offset="1" stop-color="#81C784"/>
</linearGradient>
</defs>
</svg>
